<?xml version="1.0" encoding="UTF-8"?>
<svg id="Drawings" xmlns="http://www.w3.org/2000/svg" viewBox="0 0 842.52 1122.06">
  <defs>
    <style>
      .cls-1 {
        fill: none;
        stroke: #000;
        stroke-miterlimit: 10;
        stroke-width: 2px;
      }

      .cls-2 {
        fill: #000;
      }

      .cls-2, .cls-3 {
        stroke-width: 0px;
      }

      .cls-3 {
        fill: #8c8c8c;
      }
    </style>
  </defs>
  <g>
    <path class="cls-2" d="M360.55,300.94c.05-.14.11-.28.16-.42.1-.23.21-.46.41-.61.37-.27.93-.11,1.23.24.3.34.4.82.44,1.28.1,1.21-.12,2.45-.63,3.55-.39.84-1.14,1.7-2.07,1.57-1.16-.16-1.53-1.74-1.15-2.85.34-.97,1.01-1.82,1.33-2.79l.28.03Z"/>
    <path class="cls-2" d="M325.24,303.65c-.32-.79-.23-1.76.05-2.59.36-1.03.97-1.97,1.34-2.99l.02-.04c.75.3,1.29,1.05,1.49,1.85.24.91.11,1.88-.04,2.81-.16.97-.68,2.2-1.66,2.08-.35-.05-.66-.28-.88-.57-.13-.17-.24-.36-.32-.55Z"/>
    <path class="cls-3" d="M605.65,669.24c1.06,3.66,1.86,7.54,1.02,11.26-1.07,4.71-4.57,8.43-7.94,11.9-6.3,6.5-15.47,12.82-24.23,15.1l-.14-.07c7.79-16.31,14.29-33.62,16.57-50.01l.57.08c2.79.15,9.05,1.91,10.73,4.14s2.64,4.92,3.42,7.6Z"/>
    <path class="cls-3" d="M360.27,300.91c-.32.97-.99,1.82-1.33,2.79-.38,1.11-.01,2.69,1.15,2.85.93.13,1.68-.73,2.07-1.57.51-1.1.73-2.34.63-3.55-.04-.46-.14-.94-.44-1.28-.3-.35-.86-.51-1.23-.24-.2.15-.31.38-.41.61-.05.14-.11.28-.16.42l-.28-.03ZM591.22,655.22c-.08.73-.18,1.46-.29,2.2-2.28,16.39-8.78,33.7-16.57,50.01-5.32,11.14-11.24,21.82-16.81,31.41-3.15,5.42-6.44,10.8-10.6,15.49-4.33,4.88-9.51,8.92-14.66,12.93-7.1,5.53-14.27,11.11-22.44,14.9-6.18,2.87-12.83,4.66-19.55,5.84-10.8,1.89-21.86,2.23-32.75,1.02l-.05.48c-2.98,22.85-4.6,51.81-4.17,74.85l-.82.89c-11.95,5.96-25.61,7.52-38.96,7.72-5.97.09-12.17-.21-18.44-.83-9.97-.97-20.14-2.72-29.92-4.96-5.42-1.24-10.73-2.63-15.82-4.12l.03-.12c-3.59-1.1-5.81-5.26-5.06-8.94.74-3.68,4.09-6.56,7.8-7.14.85-.14,1.78-.19,2.44-.74.68-.58.89-1.53,1.04-2.41,3.15-17.54,4.41-40.38,3.88-58.2h-1c-10.13-1.19-22.81-4.16-32.26-7.99-6.83-2.76-13.24-6.44-19.62-10.11-2.34-1.34-4.69-2.69-7.03-4.06-18.93-11.02-37.66-22.99-50.87-40.32-8.22-10.8-13.95-23.27-19.32-35.73-2.05-4.77-4.07-9.58-5.41-14.6-1.66-6.23-2.26-12.68-2.74-19.11-2.14-28.82-1.89-58.66,8.91-85.47l-.02-.38c.29-1.06.59-2.12.89-3.18,8.63-30.04,22.68-57.61,33.55-86.24h.01c6.21-16.37,11.38-33.09,13.91-50.81-11.05-9.26-26.66-15.94-37.73-25.17-11.08-9.23-20.65-21.76-21.44-36.16-.58-10.5,3.55-20.65,7.9-30.23,2.68-5.92,5.7-12.05,11-15.8,6.23-4.42,14.4-4.71,22.03-4.53,6.8.17,11.33-.77,18.06-.13l.18-1.98c8.9-22.41,29.86-38.66,52.8-46.09,1.54-.5,3.09-.96,4.65-1.39,12.14-3.33,24.76-4.52,37.41-4.21,9.89.24,19.79,1.4,29.5,3.17,7.85,1.43,15.65,3.28,23.3,5.61,9.63,2.93,19.01,6.65,27.88,11.29,6.09,3.17,11.94,6.78,17.47,10.88,13.02,9.65,24.01,21.74,34.79,33.85,8.95,10.05,17.86,20.22,25.16,31.53,7.73,11.99,13.54,25.09,19.33,38.13,8.74,19.72,17.49,39.46,24.89,59.72,23.14,63.36,25.81,131.35,15.85,199.27l-.31-.04ZM328.1,302.69c.15-.93.28-1.9.04-2.81-.2-.8-.74-1.55-1.49-1.85-.11-.04-.23-.08-.35-.1-.17-.02-.34-.03-.49.04-.24.13-.34.42-.4.69-.26,1.12-.44,2.27-.54,3.42-.03.47-.05.97.2,1.37.04.07.1.14.17.2.08.19.19.38.32.55.22.29.53.52.88.57.98.12,1.5-1.11,1.66-2.08ZM319.15,356.76c.04-1.14-.39-2.25-.82-3.32-1.76-4.32-13.74-13.09-19.53-14.69-2.74-1.04-4.86-1.28-9.84-2.4-5.2-1.17-10.8-1.82-15.73.22-2.73,1.13-5.27,3.33-5.76,6.24-.66,3.85,2.36,7.32,5.42,9.74,10.61,8.4,24.74,12.21,38.13,10.26,3.64-.53,8.02-2.37,8.13-6.05Z"/>
    <path class="cls-3" d="M448.95,264.05c5.72,3.4,8.47,11.4,5.37,17.29l-.28.54c-8.87-4.64-18.25-8.36-27.88-11.29l.34-1.09c5.16-4.21,16.73-8.85,22.45-5.45Z"/>
    <path class="cls-3" d="M373.4,260.31l-.04,1.5c-12.65-.31-25.27.88-37.41,4.21l-.3-.96c1.44-4.58,4.15-8.76,7.74-11.94,1.23-1.08,2.56-2.05,4.03-2.75,2.42-1.14,5.12-1.5,7.78-1.75,3.15-.29,6.39-.45,9.4.54,4.76,1.56,8.39,6.15,8.8,11.15Z"/>
    <path class="cls-3" d="M314.9,866.88c-5.41-.27-10.81-.89-16.14-1.87-4.36-.8-8.69-1.83-12.94-3.09-4.14-1.23-8.66-3.07-10.34-7.05-1.49-3.54-.11-7.8,2.5-10.61,2.62-2.81,6.26-4.43,9.89-5.68,1.46-.51,3.03-1.03,3.98-2.25.65-.83.92-1.89,1.18-2.92,4.33-17.75,6.28-51.64,6.47-69.91l.09-.16c2.34,1.37,4.69,2.72,7.03,4.06,6.38,3.67,12.79,7.35,19.62,10.11,9.45,3.83,22.13,6.8,32.26,7.99h1c.53,17.82-.73,40.66-3.88,58.2-.15.88-.36,1.83-1.04,2.41-.66.55-1.59.6-2.44.74-3.71.58-7.06,3.46-7.8,7.14-.75,3.68,1.47,7.84,5.06,8.94l-.03.12c-.63-.18-1.25-.36-1.87-.55-7.24,4.51-14,4.21-22.53,4.48-3.36.11-6.72.08-10.07-.1Z"/>
    <path class="cls-2" d="M298.8,338.75c5.79,1.6,17.77,10.37,19.53,14.69.43,1.07.86,2.18.82,3.32-.11,3.68-4.49,5.52-8.13,6.05-13.39,1.95-27.52-1.86-38.13-10.26-3.06-2.42-6.08-5.89-5.42-9.74.49-2.91,3.03-5.11,5.76-6.24,4.93-2.04,10.53-1.39,15.73-.22,4.98,1.12,7.1,1.36,9.84,2.4Z"/>
    <path class="cls-3" d="M223.29,472.2c13.77,2.04,27.53,4.07,41.29,6.11-10.87,28.63-24.92,56.2-33.55,86.24-11.4,3.69-24.09,1.91-35.09-2.88-11.17-4.86-20.84-12.6-29.82-20.82-3.2-2.93-6.4-6.03-8.29-9.94-3.2-6.65-2.1-14.48-.93-21.76.64-3.96,1.29-7.97,2.99-11.6,2.98-6.34,8.8-10.81,14.59-14.74,7.66-5.21,15.88-10.05,25-11.6,7.87-1.35,15.92-.18,23.81.99Z"/>
  </g>
  <g>
    <path class="cls-1" d="M278.5,313.5c8.9-22.41,29.86-38.66,52.8-46.09,1.54-.5,3.09-.96,4.65-1.39,12.14-3.33,24.76-4.52,37.41-4.21,9.89.24,19.79,1.4,29.5,3.17,7.85,1.43,15.65,3.28,23.3,5.61,9.63,2.93,19.01,6.65,27.88,11.29,6.09,3.17,11.94,6.78,17.47,10.88,13.02,9.65,24.01,21.74,34.79,33.85,8.95,10.05,17.86,20.22,25.16,31.53,7.73,11.99,13.54,25.09,19.33,38.13,8.74,19.72,17.49,39.46,24.89,59.72,23.14,63.36,25.81,131.35,15.85,199.27l-.03.24"/>
    <path class="cls-1" d="M591.5,652.5c-.08.9-.17,1.81-.28,2.72-.08.73-.18,1.46-.29,2.2-2.28,16.39-8.78,33.7-16.57,50.01-5.32,11.14-11.24,21.82-16.81,31.41-3.15,5.42-6.44,10.8-10.6,15.49-4.33,4.88-9.51,8.92-14.66,12.93-7.1,5.53-14.27,11.11-22.44,14.9-6.18,2.87-12.83,4.66-19.55,5.84-10.8,1.89-21.86,2.23-32.75,1.02-.99-.11-1.97-.23-2.95-.36"/>
    <path class="cls-1" d="M457.5,789.5c-2.98,22.85-4.6,51.81-4.17,74.85"/>
    <path class="cls-1" d="M347.5,862.5c.62.19,1.24.37,1.87.55,5.09,1.49,10.4,2.88,15.82,4.12,9.78,2.24,19.95,3.99,29.92,4.96,6.27.62,12.47.92,18.44.83,13.35-.2,27.01-1.76,38.96-7.72"/>
    <path class="cls-1" d="M359.5,785.5c.53,17.82-.73,40.66-3.88,58.2-.15.88-.36,1.83-1.04,2.41-.66.55-1.59.6-2.44.74-3.71.58-7.06,3.46-7.8,7.14-.75,3.68,1.47,7.84,5.06,8.94"/>
    <path class="cls-1" d="M377.17,845.86c-5.36,6.21-9.46,13.51-11.98,21.31-.28.85-.53,1.71-.77,2.58"/>
    <path class="cls-1" d="M402.03,853.53c-1.96,6.33-4.26,12.54-6.92,18.6-.45,1.04-.92,2.07-1.39,3.1"/>
    <path class="cls-1" d="M299.5,763.5c-.19,18.27-2.14,52.16-6.47,69.91-.26,1.03-.53,2.09-1.18,2.92-.95,1.22-2.52,1.74-3.98,2.25-3.63,1.25-7.27,2.87-9.89,5.68-2.61,2.81-3.99,7.07-2.5,10.61,1.68,3.98,6.2,5.82,10.34,7.05,4.25,1.26,8.58,2.29,12.94,3.09,5.33.98,10.73,1.6,16.14,1.87,3.35.18,6.71.21,10.07.1,8.53-.27,15.29.03,22.53-4.48"/>
    <path class="cls-1" d="M317.02,850.91c-2.59,4.84-3.34,10.62-2.12,15.97.14.6.3,1.19.49,1.78"/>
    <path class="cls-1" d="M300.76,853.03c-.93,3.94-1.6,7.95-2,11.98-.03.32-.06.65-.09.97"/>
    <path class="cls-1" d="M230.16,568.11c-10.8,26.81-11.05,56.65-8.91,85.47.48,6.43,1.08,12.88,2.74,19.11,1.34,5.02,3.36,9.83,5.41,14.6,5.37,12.46,11.1,24.93,19.32,35.73,13.21,17.33,31.94,29.3,50.87,40.32,2.34,1.37,4.69,2.72,7.03,4.06,6.38,3.67,12.79,7.35,19.62,10.11,9.45,3.83,22.13,6.8,32.26,7.99"/>
    <path class="cls-1" d="M319.71,626.65c-6.25,2.49-11.19,8.06-12.91,14.57-.82,3.09-.84,6.68,1.19,9.15,2.2,2.69,6.49,3.18,9.44,1.35s4.42-5.6,3.86-9.03c-.12-.71-.32-1.44-.77-2.01-.56-.72-1.45-1.13-2.35-1.28-3.46-.56-6.82,3.26-5.83,6.63"/>
    <path class="cls-1" d="M452.47,483.12c-3.97,35.38-13.73,69.57-2.13,111.22,6.16,22.16,3,13.73,5.56,20.29,3.89,9.92,7.92,19.78,12.11,29.57,1.73,4.06,3.56,8.21,6.71,11.3,2.48,2.44,5.6,4.03,8.94,5.07,2.22.7,4.54,1.14,6.83,1.44,4.41.57,8.99.62,13.2-.82,8.45-2.89,13.77-11.09,17.97-18.97,15.76-29.57,25.03-62.58,26.99-96.02"/>
    <path class="cls-1" d="M485.81,641.62c-.72,6.32-1.44,12.63-2.15,18.95-.02.15-.03.31-.05.46"/>
    <path class="cls-1" d="M510.03,637.3c-.37,5.94-.74,11.87-1.1,17.8"/>
    <path class="cls-1" d="M591.5,657.5c2.79.15,9.05,1.91,10.73,4.14s2.64,4.92,3.42,7.6c1.06,3.66,1.86,7.54,1.02,11.26-1.07,4.71-4.57,8.43-7.94,11.9-6.3,6.5-15.47,12.82-24.23,15.1"/>
    <path class="cls-1" d="M231.55,564.39c-.17.06-.35.12-.52.16-11.4,3.69-24.09,1.91-35.09-2.88-11.17-4.86-20.84-12.6-29.82-20.82-3.2-2.93-6.4-6.03-8.29-9.94-3.2-6.65-2.1-14.48-.93-21.76.64-3.96,1.29-7.97,2.99-11.6,2.98-6.34,8.8-10.81,14.59-14.74,7.66-5.21,15.88-10.05,25-11.6,7.87-1.35,15.92-.18,23.81.99,13.77,2.04,27.53,4.07,41.29,6.11"/>
    <path class="cls-1" d="M163.35,496.51c5.53-.85,16.67-1.17,22.15-.01"/>
    <path class="cls-1" d="M158.5,512.5c6.29-.17,14.63-.25,20.92-.42"/>
    <path class="cls-1" d="M230.14,567.73c.29-1.06.59-2.12.89-3.18,8.63-30.04,22.68-57.61,33.55-86.24h.01c6.21-16.37,11.38-33.09,13.91-50.81"/>
    <path class="cls-1" d="M278.5,427.5c-11.05-9.26-26.66-15.94-37.73-25.17-11.08-9.23-20.65-21.76-21.44-36.16-.58-10.5,3.55-20.65,7.9-30.23,2.68-5.92,5.7-12.05,11-15.8,6.23-4.42,14.4-4.71,22.03-4.53,6.8.17,11.33-.77,18.06-.13.06,0,.12,0,.18.02"/>
    <path class="cls-1" d="M319.71,397.28c-5.34,3.16-11.01,6-17.14,6.95-6.12.95-12.83-.23-17.48-4.34"/>
    <path class="cls-1" d="M298.8,338.75c-.48-.14-.92-.22-1.3-.25"/>
    <path class="cls-1" d="M298.8,338.75c-2.74-1.04-4.86-1.28-9.84-2.4-5.2-1.17-10.8-1.82-15.73.22-2.73,1.13-5.27,3.33-5.76,6.24-.66,3.85,2.36,7.32,5.42,9.74,10.61,8.4,24.74,12.21,38.13,10.26,3.64-.53,8.02-2.37,8.13-6.05.04-1.14-.39-2.25-.82-3.32-1.76-4.32-13.74-13.09-19.53-14.69Z"/>
    <path class="cls-1" d="M304.5,341.5c-2.48-1.35-4.19-2.17-5.7-2.75"/>
    <path class="cls-1" d="M426.5,269.5c5.16-4.21,16.73-8.85,22.45-5.45s8.47,11.4,5.37,17.29"/>
    <path class="cls-1" d="M335.65,265.06c1.44-4.58,4.15-8.76,7.74-11.94,1.23-1.08,2.56-2.05,4.03-2.75,2.42-1.14,5.12-1.5,7.78-1.75,3.15-.29,6.39-.45,9.4.54,4.76,1.56,8.39,6.15,8.8,11.15"/>
    <path class="cls-1" d="M326.63,298.07c-.37,1.02-.98,1.96-1.34,2.99-.28.83-.37,1.8-.05,2.59.08.19.19.38.32.55.22.29.53.52.88.57.98.12,1.5-1.11,1.66-2.08.15-.93.28-1.9.04-2.81-.2-.8-.74-1.55-1.49-1.85-.11-.04-.23-.08-.35-.1-.17-.02-.34-.03-.49.04-.24.13-.34.42-.4.69-.26,1.12-.44,2.27-.54,3.42-.03.47-.05.97.2,1.37.04.07.1.14.17.2.28.26.74.35,1.03.09"/>
    <path class="cls-1" d="M360.38,300.49c-.03.14-.07.28-.11.42-.32.97-.99,1.82-1.33,2.79-.38,1.11-.01,2.69,1.15,2.85.93.13,1.68-.73,2.07-1.57.51-1.1.73-2.34.63-3.55-.04-.46-.14-.94-.44-1.28-.3-.35-.86-.51-1.23-.24-.2.15-.31.38-.41.61-.05.14-.11.28-.16.42-.48,1.41-.63,2.95-.41,4.42"/>
  </g>
</svg>