<?xml version="1.0" encoding="UTF-8"?>
<svg id="Layer_1" data-name="Layer 1" xmlns="http://www.w3.org/2000/svg" viewBox="0 0 168.11 168.2">
  <defs>
    <style>
      .cls-1, .cls-2 {
        stroke-width: 0px;
      }

      .cls-2 {
        fill: #fff;
      }
    </style>
  </defs>
  <path class="cls-2" d="m85.73,168.2h0c-53.94,0-81.54-39.91-81.54-88.59L29.19,27l116,4,17,40c0,48.58-22.63,97.2-76.46,97.2Zm-22.17-33.14c-5.38,1.15-10.63,1.08-15.87.22-5.87-.97-10.26-3.69-12.41-8.95-.26-.63-.52-1.26-.85-1.86-2.08-3.76-4.49-7.24-8.67-9.42-1-.52-1.77-1.43-2.55-2.23-.65-.68-.34-1.19.6-1.39.39-.08.78-.16,1.18-.18,2.2-.11,4.27.27,6.24,1.21,3.34,1.59,5.99,3.79,7.89,6.75,2.45,3.83,5.8,6.82,10.73,7.73,4.57.84,9.07.12,13.34-1.56.31-.12.62-.55.68-.87.68-3.73,2.17-7.08,5.39-9.65.06-.05.04-.19.07-.29-.9-.1-1.77-.19-2.64-.29-4.96-.6-9.82-1.52-14.48-3.25-9.3-3.47-15.73-9.29-18.73-18.07-1.27-3.71-1.99-7.48-2.34-11.35-.79-8.89,1.23-16.99,8-23.8.27-.28.38-.78.23-1.13-2.61-6.29-1.81-12.47.68-18.59.14-.33.72-.75,1.08-.74,1.5.04,3.06.04,4.49.4,5.83,1.5,11.3,3.77,16.31,6.88.99.61,1.83.61,3.21.14,12.11-4.16,25.49-4.54,37.5-.14,1.59.58,2.48.69,3.53.05,4.71-2.9,9.74-5.27,15.22-6.71,1.8-.47,3.75-.47,5.65-.61.29-.02.79.36.91.65,2.55,6.15,3.43,12.36.77,18.68-.26.61.02.91.4,1.3,3.24,3.29,5.64,7.01,6.8,11.29,2.32,8.57,1.3,16.96-1.88,25.21-2.05,5.3-5.53,9.65-10.7,12.83-5.29,3.25-11.12,5.34-17.43,6.31-2.41.37-4.84.67-7.44,1.03,3.03,2.25,4.72,5.08,5.39,8.35.41,1.97.6,4.01.62,6.01.07,6.71.02,13.43.03,20.15,0,3.3,2.27,4.98,5.86,4.35.27-.05.54-.12.81-.2,10.75-3.26,20.49-8.15,28.78-15.13,23-19.35,32.02-43.14,26.63-71.1-3.32-17.21-12.8-31.51-27.37-42.94-14.5-11.38-31.43-17.56-50.69-18.46-11.32-.53-22.33.82-32.99,4.29C24.38,20.15,3.53,45.53.49,73.11c-.99,8.95-.53,17.81,1.87,26.54,4.51,16.46,14.29,29.94,28.66,40.75,7.63,5.74,16.26,9.9,25.63,12.84,4.66,1.46,7.79-1.16,6.95-5.51-.64-3.35-.78-6.75-.15-10.1.23-1.23.16-1.51.11-2.57Z"/>
  <path class="cls-1" d="m63.56,143.48c.02.53.05.89.05,1.24.02,4.64-.12,9.29.11,13.92.2,4.14-2.79,6.48-7.08,4.99-9.38-3.25-18.01-7.86-25.63-14.22-14.37-11.98-24.14-26.92-28.66-45.16C-.04,94.57-.5,84.75.49,74.84,3.53,44.27,24.38,16.15,55.54,4.88,66.2,1.03,77.21-.46,88.53.12c19.25.99,36.18,7.85,50.69,20.46,14.57,12.67,24.05,28.52,27.37,47.58,5.39,30.98-3.63,57.33-26.63,78.78-8.29,7.73-18.04,13.15-28.78,16.76-.26.09-.53.16-.81.22-3.59.7-5.86-1.16-5.86-4.82,0-7.44.04-14.88-.03-22.32-.02-2.23-.22-4.48-.62-6.66-.67-3.62-2.36-6.76-5.39-9.25,2.6-.4,5.03-.72,7.44-1.14,6.31-1.09,12.13-3.39,17.43-7,5.17-3.52,8.66-8.34,10.7-14.21,3.18-9.13,4.2-18.44,1.88-27.93-1.16-4.74-3.56-8.87-6.8-12.51-.38-.43-.66-.76-.4-1.44,2.66-7,1.79-13.89-.77-20.7-.12-.32-.62-.74-.91-.72-1.89.15-3.85.15-5.65.67-5.48,1.6-10.5,4.23-15.22,7.44-.75.51-1.42.59-2.33.36-13.15-3.37-26.32-3.41-39.48,0-.95.25-1.64.14-2.43-.4-5.01-3.44-10.48-5.96-16.31-7.62-1.43-.41-2.99-.4-4.49-.45-.36-.01-.94.45-1.08.82-2.5,6.79-3.29,13.64-.68,20.61.13.34.02.96-.22,1.22-6.79,7.55-8.81,16.53-8.02,26.39.34,4.28,1.07,8.46,2.34,12.57,3,9.73,9.43,16.18,18.73,20.02,4.66,1.92,9.52,2.93,14.48,3.6.87.12,1.74.21,2.64.32-.02.12,0,.27-.07.32-3.21,2.85-4.71,6.56-5.39,10.69-.06.36-.36.83-.68.97-4.27,1.87-8.77,2.66-13.34,1.73-4.93-1-8.28-4.32-10.73-8.56-1.9-3.29-4.55-5.72-7.89-7.48-1.97-1.04-4.04-1.46-6.24-1.34-.39.02-.79.11-1.18.2-.93.22-1.25.79-.6,1.54.78.9,1.55,1.9,2.55,2.48,3.97,2.29,6.34,5.88,8.35,9.8.47.92.86,1.89,1.23,2.86,2.17,5.72,6.53,8.69,12.35,9.75,5.24.95,10.48,1.04,15.87-.24Z"/>
</svg>