<?xml version="1.0" encoding="UTF-8"?>
<svg id="Layer_1" data-name="Layer 1" xmlns="http://www.w3.org/2000/svg" viewBox="0 0 463.73 463.76">
  <defs>
    <style>
      .cls-1, .cls-2 {
        stroke-width: 0px;
      }

      .cls-2 {
        fill: #fff;
      }
    </style>
  </defs>
  <path class="cls-1" d="m0,413.2C0,292.38,0,171.56,0,50.74c.33-1.22.85-2.43.95-3.68.77-9.33,3.87-17.81,9.4-25.32C19.78,8.95,32.44,1.81,48.36.57,49.16.51,49.95.2,50.74,0c120.96,0,241.91,0,362.87,0,.8.19,1.59.51,2.39.55,7.44.38,14.47,2.31,20.91,5.99,17.07,9.76,26.7,24.44,26.72,44.23.16,120.8.08,241.59.07,362.39,0,2.03-.11,4.07-.37,6.08-1.7,12.99-7.65,23.72-17.56,32.23-9.87,8.47-21.52,12.27-34.4,12.27-119.35.03-238.7.02-358.05,0-4.23,0-8.43-.43-12.56-1.35-22.72-5.08-38.12-24.42-39.79-45.29-.11-1.32-.63-2.61-.96-3.91Zm400.03-13.38c.06-1.44.15-2.48.15-3.52,0-45.91.03-91.82-.03-137.73,0-5.27-.41-10.55-.86-15.81-.75-8.84-2.72-17.42-5.88-25.72-8.51-22.33-24.03-37.24-46.99-44.18-7.24-2.19-14.66-3.2-22.22-3.71-7.91-.53-15.69,0-23.37,1.69-20.21,4.44-36.16,15.36-48.09,32.22-.26.37-.6.7-1.16,1.34v-2.7c0-7.48,0-14.95,0-22.43q0-3.56-3.66-3.56c-19.93,0-39.87,0-59.8,0-.68,0-1.36.02-2.04.03-1.12.01-1.65.61-1.67,1.69-.02.98-.04,1.96-.04,2.94,0,71.58,0,143.17,0,214.75,0,.76-.04,1.51.02,2.26.05.73.19,1.45.28,2.11.41.13.63.25.84.25,21.29.02,42.58.04,63.87.04.52,0,1.04-.11,1.56-.18.07,0,.13-.07.19-.11.06-.05.1-.11.45-.52v-2.99c0-37-.01-74,.02-111,0-3.77.17-7.54.41-11.3.37-5.75,1.58-11.35,3.67-16.73,4.81-12.34,13.46-20.37,26.53-23.3,6.17-1.39,12.43-1.58,18.66-.56,8.81,1.44,16.02,5.62,21.1,13.12,4.47,6.59,6.53,14.03,7.67,21.79.84,5.69.93,11.42.93,17.16-.02,36.92-.01,73.85-.01,110.77,0,.83.01,1.66.04,2.49.02.92.52,1.36,1.43,1.35.45,0,.91.01,1.36.01,21.37,0,42.73,0,64.1,0h2.54Zm-259.01-111.9c0-35.86,0-71.73,0-107.59,0-.68,0-1.36,0-2.04-.04-2.37-.2-2.56-2.62-2.57-21.59-.01-43.18-.01-64.78,0-2.42,0-2.58.2-2.62,2.56,0,.3,0,.6,0,.91,0,72.41,0,144.82,0,217.23q0,3.4,3.3,3.4c20.99,0,41.98,0,62.96,0,3.77,0,3.76.55,3.76-3.85,0-36.02,0-72.03,0-108.05Zm-35.42-223.77c-21.38-.06-41.14,17.03-41.19,41.5-.05,23.26,18.31,41.68,41.34,41.6,24.24-.08,41.19-19.83,41.2-41.52.02-23.01-18.65-41.72-41.35-41.58Z"/>
  <path class="cls-2" d="m400.03,399.82h-2.54c-21.37,0-42.73,0-64.1,0-.45,0-.91-.02-1.36-.01-.92,0-1.41-.43-1.43-1.35-.02-.83-.04-1.66-.04-2.49,0-36.92-.01-73.85.01-110.77,0-5.74-.09-11.47-.93-17.16-1.14-7.76-3.2-15.2-7.67-21.79-5.09-7.5-12.3-11.68-21.1-13.12-6.23-1.02-12.49-.82-18.66.56-13.07,2.94-21.72,10.96-26.53,23.3-2.09,5.38-3.3,10.97-3.67,16.73-.24,3.76-.41,7.53-.41,11.3-.03,37-.02,74-.02,111v2.99c-.35.4-.4.47-.45.52-.06.05-.12.1-.19.11-.52.07-1.04.18-1.56.18-21.29,0-42.58-.02-63.87-.04-.21,0-.43-.12-.84-.25-.09-.66-.23-1.38-.28-2.11-.05-.75-.02-1.51-.02-2.26,0-71.58,0-143.17,0-214.75,0-.98.02-1.96.04-2.94.02-1.09.55-1.68,1.67-1.69.68,0,1.36-.03,2.04-.03,19.93,0,39.87,0,59.8,0q3.66,0,3.66,3.56c0,7.48,0,14.95,0,22.43v2.7c.56-.64.89-.97,1.16-1.34,11.93-16.86,27.88-27.79,48.09-32.22,7.67-1.68,15.46-2.21,23.37-1.69,7.56.5,14.98,1.52,22.22,3.71,22.96,6.95,38.48,21.85,46.99,44.18,3.16,8.29,5.14,16.88,5.88,25.72.44,5.26.85,10.54.86,15.81.07,45.91.04,91.82.03,137.73,0,1.04-.09,2.08-.15,3.52Z"/>
  <path class="cls-2" d="m141.02,287.93c0,36.02,0,72.03,0,108.05,0,4.4.01,3.84-3.76,3.85-20.99.01-41.98,0-62.96,0q-3.3,0-3.3-3.4c0-72.41,0-144.82,0-217.23,0-.3,0-.6,0-.91.04-2.37.2-2.56,2.62-2.56,21.59-.01,43.18-.01,64.78,0,2.42,0,2.58.19,2.62,2.57.01.68,0,1.36,0,2.04,0,35.86,0,71.73,0,107.59Z"/>
  <path class="cls-2" d="m105.6,64.16c22.7-.14,41.37,18.57,41.35,41.58-.02,21.69-16.97,41.44-41.2,41.52-23.03.08-41.39-18.34-41.34-41.6.05-24.46,19.81-41.56,41.19-41.5Z"/>
</svg>