<?xml version="1.0" encoding="UTF-8"?>
<svg id="Layer_1" data-name="Layer 1" xmlns="http://www.w3.org/2000/svg" viewBox="0 0 457.69 458.02">
  <defs>
    <style>
      .cls-1, .cls-2 {
        stroke-width: 0px;
      }

      .cls-2 {
        fill: #fff;
      }
    </style>
  </defs>
  <path class="cls-1" d="m457.69,217.47c-.3-13.41-1.37-26.76-4.15-39.9-1.05-4.97-1.86-10.01-3.38-14.89-1.94-6.22-3.49-12.56-5.87-18.64-4.67-11.94-9.74-23.69-16.29-34.76-19.85-33.58-46.83-59.85-80.72-79.09-7.19-4.08-14.58-7.79-22.22-10.94-4.83-1.99-9.73-3.78-14.63-5.58-8.86-3.25-17.92-5.77-27.12-7.82-10.4-2.31-20.92-3.86-31.53-4.85-12.04-1.13-24.11-1.23-36.16-.66-24.55,1.16-48.41,5.92-71.53,14.35-11.31,4.12-22.17,9.2-32.72,14.97-7.63,4.18-14.88,8.96-21.93,14.04-17.83,12.85-33.28,28.11-46.44,45.7-8.82,11.78-16.3,24.37-22.48,37.72-.22.47-.37.97-.55,1.46,0,0,0,0,.01,0-4.34,8.98-7.7,18.34-10.54,27.88-4.13,13.88-6.86,28.04-8.26,42.46-1.23,12.64-1.55,25.28-.71,37.94.89,13.47,2.83,26.79,6.02,39.92,4.77,19.65,12.14,38.26,22.07,55.86,6.55,11.61,14.18,22.43,22.78,32.61,6.11,7.24,12.69,14.02,19.76,20.31,4.64,4.12,6.89,9.13,7.02,15.32.25,12.36.68,24.72,1.05,37.08.07,2.31.14,4.63.86,6.85,1.96,6.09,6,10.15,12.05,12.24.75.26,1.65.17,2.17.96h5.84c8.58-2.79,16.62-6.87,24.84-10.5,7.64-3.37,15.35-6.56,22.9-10.15,4.36-2.07,8.9-3.41,13.81-2.19,2.15.53,4.28,1.11,6.43,1.65,10.09,2.53,20.32,4.32,30.65,5.57,15.78,1.9,31.61,2.3,47.47,1.22,26.1-1.78,51.36-7.35,75.58-17.33,7.39-3.04,14.76-6.2,21.66-10.25,4.89-2.87,10.02-5.32,14.67-8.57,3.83-2.68,7.55-5.51,11.45-8.08,3.91-2.58,7.53-5.53,11.1-8.53,1.36-1.14,2.43-2.67,3.89-3.65,2.43-1.64,4.43-3.73,6.54-5.7,3.32-3.1,6.52-6.33,9.5-9.76,0-.01,0-.02,0-.03,3.78-3.78,7.15-7.94,10.43-12.15,2.72-3.49,5.38-7.02,7.94-10.63,4.44-6.26,8.44-12.8,12.1-19.55,4.78-8.81,9.03-17.88,12.48-27.29,2.19-5.98,4.33-11.98,5.95-18.15,1.01-3.84,2.01-7.7,2.86-11.58.6-2.7.75-5.51,1.45-8.18.85-3.22,1.28-6.5,1.77-9.77,1-6.7,1.73-13.44,1.76-20.23.01-.96-.09-1.95.38-2.85v-13.86Zm-131.87,17.97c-1.65,2.56-3.32,5.12-4.95,7.7-6.44,10.17-12.85,20.36-19.3,30.52-1.51,2.38-2.98,4.81-4.73,7-5.43,6.79-12.5,10.95-21.09,12.36-9.85,1.62-18.76-.74-26.73-6.72-17.34-13-34.69-25.99-52.02-39.02-2.76-2.07-5.7-3.46-9.22-3.46-3.26,0-6.11,1.09-8.68,3.04-9.85,7.48-19.7,14.95-29.55,22.43-13.7,10.4-27.41,20.81-41.11,31.21-.48.36-.95.72-1.44,1.06-4.54,3.16-9.78,2.84-13.72-.83-3.92-3.64-4.67-8.89-1.81-13.62,2.63-4.33,5.38-8.58,8.08-12.87,19.49-30.94,39-61.86,58.45-92.82,2.61-4.15,5.62-8.01,9.59-10.74,12.66-8.69,28.13-8.62,40.26.08,5.43,3.89,10.69,8.04,16.04,12.05,12.69,9.5,25.36,19.03,38.1,28.45,4.45,3.3,9.34,3.56,14.36,1.23,1.1-.51,1.86-1.47,2.81-2.15,3.79-2.7,7.65-5.28,11.11-8.41.2-.18.49-.27.74-.41,0,0,0,0,.01,0h0s.02-.02.02-.02c0,0-.02-.01-.03-.01h0c2.77-2.01,5.54-4,8.12-6.26,1.48-1.29,3.2-2.29,4.78-3.46,2.43-1.81,4.83-3.65,7.24-5.48l9.39-7.11c7.09-5.38,14.18-10.77,21.28-16.16,2.93-2.23,5.87-4.45,8.81-6.68,7.43-5.63,16.52-.09,17.46,7.46.34,2.72-.49,5.14-1.92,7.41-2.9,4.59-5.79,9.19-8.69,13.78-5.48,8.69-10.97,17.38-16.45,26.07-4.72,7.48-9.43,14.94-14.14,22.42-.4.63-.73,1.29-1.1,1.94.31-.03.59,0,.85.07-.25-.07-.52-.09-.82-.06Z"/>
  <path class="cls-2" d="m291.02,201.53c2.77-2,5.54-4,8.12-6.25,1.47-1.29,3.2-2.29,4.78-3.46,2.43-1.81,4.82-3.65,7.24-5.48,3.13-2.37,6.27-4.74,9.39-7.11,7.1-5.39,14.19-10.77,21.28-16.16,2.94-2.23,5.88-4.45,8.81-6.68,7.43-5.63,16.52-.09,17.46,7.46.34,2.72-.49,5.14-1.92,7.41-2.9,4.59-5.79,9.19-8.69,13.78-5.48,8.69-10.97,17.38-16.45,26.07-4.71,7.47-9.43,14.94-14.14,22.42-.39.63-.73,1.29-1.1,1.94-1.65,2.57-3.32,5.13-4.95,7.71-6.44,10.17-12.85,20.36-19.3,30.52-1.51,2.38-2.98,4.81-4.73,7-5.43,6.79-12.5,10.96-21.09,12.36-9.85,1.62-18.76-.75-26.73-6.72-17.34-13-34.7-25.99-52.02-39.02-2.76-2.07-5.7-3.47-9.22-3.46-3.26,0-6.11,1.09-8.68,3.04-9.85,7.48-19.7,14.95-29.55,22.43-13.7,10.4-27.41,20.81-41.11,31.21-.47.36-.95.72-1.44,1.06-4.54,3.16-9.78,2.84-13.72-.83-3.92-3.65-4.67-8.89-1.81-13.62,2.62-4.33,5.38-8.58,8.08-12.87,19.49-30.93,39-61.85,58.45-92.82,2.61-4.15,5.62-8.01,9.59-10.74,12.66-8.7,28.12-8.62,40.26.08,5.43,3.9,10.69,8.05,16.04,12.05,12.69,9.5,25.36,19.03,38.1,28.45,4.46,3.3,9.34,3.56,14.36,1.23,1.1-.51,1.86-1.47,2.81-2.15,3.78-2.7,7.65-5.28,11.11-8.41.21-.19.51-.28.77-.42v-.02Z"/>
</svg>