<?xml version="1.0" encoding="UTF-8"?>
<svg id="Layer_1" data-name="Layer 1" xmlns="http://www.w3.org/2000/svg" viewBox="0 0 329.52 329.49">
  <defs>
    <style>
      .cls-1, .cls-2, .cls-3 {
        stroke-width: 0px;
      }

      .cls-2 {
        fill: #46c756;
      }

      .cls-3 {
        fill: #fff;
      }
    </style>
  </defs>
  <path class="cls-1" d="m329.03,151.6c-.76-10.46-2.54-20.75-5.37-30.84-9.42-33.61-27.58-61.68-54.65-83.64C233.56,8.36,192.84-3.5,147.4.89c-12.07,1.16-23.87,3.66-35.28,7.71C65.59,25.15,32.34,56.07,12.71,101.41,4.68,119.95.74,139.49.09,159.68c-.26,7.93.03,15.85.97,23.73.5,4.19.92,8.4,2.03,12.49,1.14,6.76,2.96,13.36,5.05,19.87,4.67,14.52,11.42,28.04,19.79,40.76.93,1.42,1.08,2.65.63,4.26-5.18,18.66-10.3,37.35-15.42,56.03-.19.71-.34,1.43-.53,2.21.92.17,1.56-.18,2.2-.34,17.92-4.69,35.83-9.4,53.75-14.1,2.01-.53,4.04-1.51,6.02-1.42,2.1.09,3.79,1.88,5.63,2.97,23.18,13.77,48.23,21.48,75.12,23.06,16.85.99,33.5-.57,49.89-4.76,24.87-6.37,47.1-17.85,66.55-34.59,24.42-21.01,41.42-46.92,50.73-77.79,1.54-5.09,2.76-10.28,3.87-15.48,1.25-5.86,2.13-11.8,2.45-17.8.06-.38.15-.75.18-1.13.7-8.68.66-17.36.03-26.05Zm-67.69,84.83c-1.12,2.91-3.1,5.31-5.31,7.48-6.63,6.54-14.4,11.3-23.27,14.08-5.39,1.69-11.05,1.88-16.68,1.71-6.97-.2-13.7-1.83-20.35-3.79-12.47-3.68-24.75-7.91-36.45-13.62-15.84-7.74-29.63-18.39-42.22-30.63-4.97-4.83-9.71-9.87-14.2-15.16-.34-.41-.75-.76-1.12-1.14-3.49.03-6.99.05-10.48.06,3.49,0,6.99-.02,10.48-.06-1.65-2.51-3.73-4.68-5.55-7.06-6.59-8.62-12.94-17.42-18.67-26.63-5.55-8.93-9.79-18.46-12.05-28.8-1.84-8.39-1.64-16.76-.16-25.2.89-5.04,2.64-9.71,4.97-14.2,1.73-3.33,4.06-6.24,6.48-9.07,1.75-2.04,3.54-4.06,5.45-5.96,3.66-3.62,8.09-5.52,13.29-5.41,3.38.07,6.76-.01,10.15.24,3.2.24,5.46,1.84,7.27,4.32,1.28,1.75,2.19,3.71,3.01,5.7,4.34,10.52,8.67,21.04,13.01,31.56.64,1.56,1.34,3.11,2,4.66,1.16,2.7,1.11,5.34-.18,8.02-1.64,3.42-3.56,6.62-6.08,9.48-2.49,2.83-4.87,5.75-7.45,8.5-2.6,2.77-2.91,5.14-1.03,8.4,5.98,10.38,13.13,19.89,21.4,28.56.15.16.38.25.57.37,4.48,4.87,9.52,9.1,14.77,13.11,8.31,6.33,17.34,11.38,26.95,15.43,1.84.78,3.62,1.69,5.48,2.43,4.06,1.64,6.39,1.12,9.24-2.17,2.1-2.42,4.07-4.95,6.08-7.44,2.43-3.02,4.81-6.07,7.27-9.07.96-1.17,1.79-2.46,2.66-3.67,1.12-1.57,2.55-2.24,4.23-2.73.92-.5,1.82-.53,2.72.05,2.82.73,5.48,1.88,8.1,3.11,5.17,2.43,10.3,4.94,15.44,7.43,6.39,3.09,12.77,6.19,19.16,9.29.48.23.95.51,1.43.75,2.44,1.22,3.55,3.12,3.61,5.91.16,7.35-1.37,14.37-3.99,21.16Z"/>
  <path class="cls-3" d="m138.19,182.84c4.48,4.87,9.52,9.1,14.77,13.11,8.31,6.33,17.34,11.38,26.95,15.43,1.84.78,3.62,1.69,5.48,2.43,4.06,1.64,6.39,1.12,9.24-2.17,2.1-2.42,4.07-4.95,6.08-7.44,2.43-3.02,4.81-6.07,7.27-9.07.96-1.17,1.79-2.46,2.66-3.67,1.12-1.57,2.55-2.24,4.23-2.73.91.02,1.81.03,2.72.05,2.82.73,5.48,1.88,8.1,3.11,5.17,2.43,10.3,4.94,15.44,7.43,6.39,3.09,12.77,6.19,19.16,9.29.48.23.95.51,1.43.75,2.44,1.22,3.55,3.12,3.61,5.91.16,7.35-1.37,14.37-3.99,21.16-1.12,2.91-3.1,5.31-5.31,7.48-6.63,6.54-14.4,11.3-23.27,14.08-5.39,1.69-11.05,1.88-16.68,1.71-6.97-.2-13.7-1.83-20.35-3.79-12.47-3.68-24.75-7.91-36.45-13.62-15.84-7.74-29.63-18.39-42.22-30.63-4.97-4.83-9.71-9.87-14.2-15.16-.34-.41-.75-.76-1.12-1.14-1.65-2.51-3.73-4.68-5.55-7.06-6.59-8.62-12.94-17.42-18.67-26.63-5.55-8.93-9.79-18.46-12.05-28.8-1.84-8.39-1.64-16.76-.16-25.2.89-5.04,2.64-9.71,4.97-14.2,1.73-3.33,4.06-6.24,6.48-9.07,1.75-2.04,3.54-4.06,5.45-5.96,3.66-3.62,8.09-5.52,13.29-5.41,3.38.07,6.76-.01,10.15.24,3.2.24,5.46,1.84,7.27,4.32,1.28,1.75,2.19,3.71,3.01,5.7,4.34,10.52,8.67,21.04,13.01,31.56.65,1.56,1.34,3.11,2,4.66,1.16,2.7,1.11,5.34-.18,8.02-1.64,3.42-3.56,6.62-6.08,9.48-2.49,2.83-4.87,5.75-7.45,8.5-2.6,2.77-2.91,5.14-1.03,8.4,5.98,10.38,13.13,19.89,21.4,28.56.15.16.38.25.57.37Z"/>
  <path class="cls-2" d="m217.59,188.78c-.91-.02-1.81-.03-2.72-.05.92-.5,1.82-.53,2.72.05Z"/>
</svg>